<svg width="317" height="47" viewBox="0 0 317 47" fill="none" xmlns="http://www.w3.org/2000/svg">
<rect x="1.00891" y="0.5" width="315.491" height="46" rx="23" fill="black" stroke="black"/>
<path d="M142.7 18.258L140.568 19.506C140.395 19.09 140.135 18.726 139.788 18.414C139.268 17.998 138.644 17.79 137.916 17.79C137.136 17.79 136.529 17.9893 136.096 18.388C135.68 18.7867 135.472 19.2807 135.472 19.87C135.472 20.7713 136.096 21.4733 137.344 21.976L139.086 22.678C141.807 23.7873 143.168 25.486 143.168 27.774C143.168 29.4207 142.639 30.764 141.582 31.804C140.542 32.8267 139.207 33.338 137.578 33.338C135.897 33.338 134.536 32.7573 133.496 31.596C132.647 30.6427 132.161 29.516 132.04 28.216L134.666 27.644C134.666 28.476 134.909 29.2127 135.394 29.854C135.949 30.5473 136.703 30.894 137.656 30.894C138.471 30.894 139.147 30.6253 139.684 30.088C140.239 29.5507 140.516 28.8487 140.516 27.982C140.516 27.1847 140.282 26.5693 139.814 26.136C139.363 25.7027 138.765 25.33 138.02 25.018L136.356 24.316C133.999 23.328 132.82 21.8633 132.82 19.922C132.82 18.674 133.271 17.5993 134.172 16.698C135.091 15.7967 136.33 15.346 137.89 15.346C139.294 15.346 140.455 15.736 141.374 16.516C141.911 17.0013 142.353 17.582 142.7 18.258ZM153.688 29.308L155.82 30.504C155.335 31.3707 154.72 32.038 153.974 32.506C153.125 33.0607 152.05 33.338 150.75 33.338C149.225 33.338 147.994 32.87 147.058 31.934C145.984 30.8593 145.446 29.464 145.446 27.748C145.446 25.9453 146.027 24.446 147.188 23.25C148.176 22.262 149.398 21.768 150.854 21.768C152.276 21.768 153.446 22.2447 154.364 23.198C155.387 24.2553 155.898 25.798 155.898 27.826V28.138H148.046C148.116 29.0567 148.428 29.7933 148.982 30.348C149.45 30.816 150.1 31.05 150.932 31.05C151.608 31.05 152.189 30.868 152.674 30.504C153.073 30.192 153.411 29.7933 153.688 29.308ZM148.228 26.058H153.298C153.194 25.4513 152.934 24.9573 152.518 24.576C152.068 24.16 151.496 23.952 150.802 23.952C150.074 23.952 149.476 24.186 149.008 24.654C148.627 25.0007 148.367 25.4687 148.228 26.058ZM158.535 33V22.054H161.083V23.068C161.863 22.2013 162.851 21.768 164.047 21.768C165.486 21.768 166.561 22.262 167.271 23.25C167.722 23.8913 167.947 24.9053 167.947 26.292V33H165.399V26.916C165.399 26.2573 165.347 25.72 165.243 25.304C165.139 24.888 164.975 24.602 164.749 24.446C164.524 24.2727 164.316 24.1687 164.125 24.134C163.952 24.082 163.709 24.056 163.397 24.056C163.033 24.056 162.739 24.0907 162.513 24.16C162.305 24.212 162.071 24.3507 161.811 24.576C161.569 24.784 161.387 25.1567 161.265 25.694C161.144 26.214 161.083 26.8987 161.083 27.748V33H158.535ZM179.188 23.328V14.046H181.736V33H179.188V31.856C178.339 32.844 177.247 33.338 175.912 33.338C174.3 33.338 173.009 32.766 172.038 31.622C171.085 30.478 170.608 29.1087 170.608 27.514C170.608 25.7807 171.12 24.394 172.142 23.354C173.182 22.2967 174.448 21.768 175.938 21.768C177.308 21.768 178.391 22.288 179.188 23.328ZM176.25 24.056C175.349 24.056 174.612 24.394 174.04 25.07C173.486 25.746 173.208 26.578 173.208 27.566C173.208 28.5367 173.486 29.36 174.04 30.036C174.612 30.712 175.349 31.05 176.25 31.05C177.117 31.05 177.845 30.7467 178.434 30.14C179.041 29.5333 179.344 28.684 179.344 27.592C179.344 26.4653 179.041 25.5987 178.434 24.992C177.845 24.368 177.117 24.056 176.25 24.056Z" fill="white"/>
</svg>
